<?xml version="1.0" encoding="UTF-8"?>
<svg width="40px" height="40px" viewBox="0 0 40 40" version="1.1" xmlns="http://www.w3.org/2000/svg" xmlns:xlink="http://www.w3.org/1999/xlink">
    <title>erosión del suelo</title>
    <defs>
        <polygon id="path-1" points="1.15826821e-05 0.0479500007 35.3961787 0.0479500007 35.3961787 17.9499853 1.15826821e-05 17.9499853"></polygon>
        <polygon id="path-3" points="0.0249760001 0.0511840002 2.21373601 0.0511840002 2.21373601 2.24000001 0.0249760001 2.24000001"></polygon>
        <polygon id="path-5" points="0.0383950002 0.0424200002 2.22715501 0.0424200002 2.22715501 2.23122901 0.0383950002 2.23122901"></polygon>
        <polygon id="path-7" points="0.0446110002 0.0511840002 2.23337101 0.0511840002 2.23337101 2.24000001 0.0446110002 2.24000001"></polygon>
    </defs>
    <g id="erosión-del-suelo" stroke="none" stroke-width="1" fill="none" fill-rule="evenodd">
        <circle id="Oval" fill="#F8E71C" opacity="0.266159784" cx="18.7600004" cy="16.1576699" r="13.6576699"></circle>
        <g id="Group-17" transform="translate(2.300000, 19.000000)">
            <polygon id="Fill-1" fill="#956640" points="0.0270450004 0.428420006 0.126195002 7.33547011 1.71254503 13.3502702 5.01734507 17.8447703 12.6183952 16.4237702 21.8057453 16.5228702 30.5303955 16.4898702 33.5046955 11.8300202 35.2892955 8.22777012 35.2563455 0.428420006"></polygon>
            <polygon id="Fill-2" fill="#BA7F50" points="15.0527402 6.4305301 13.3437402 9.14893014 9.95394015 10.7029802 6.18389009 8.27563012 8.75204013 6.4305301"></polygon>
            <g id="Group-16" transform="translate(0.000000, 0.002050)">
                <path d="M25.6164854,11.2878052 L21.6773853,15.4992552 L16.6396352,12.7291552 L18.7852353,10.6868052 L21.1609353,9.31590514 C21.2031853,9.36285514 21.2501353,9.39570514 21.3111853,9.42390514 L25.6164854,11.2878052 Z" id="Fill-3" fill="#BA7F50"></path>
                <polygon id="Fill-5" fill="#BA7F50" points="30.5931955 5.79933009 26.2737954 10.5694302 22.1139953 8.76658013 24.6492954 7.30648011"></polygon>
                <polygon id="Fill-7" fill="#BA7F50" points="22.5975903 0.968175014 23.9497404 6.6491251 18.6725903 9.69152514 16.3720402 5.89322509 17.5598903 0.968175014"></polygon>
                <polygon id="Fill-9" fill="#956640" points="30.5743955 0.968175014 31.4053955 4.64432507 24.8136454 6.31577509 23.5412954 0.968175014"></polygon>
                <g id="Group-13">
                    <mask id="mask-2" fill="white">
                        <use xlink:href="#path-1"></use>
                    </mask>
                    <g id="Clip-12"></g>
                    <path d="M13.3437552,9.14688514 L15.0527552,6.4284851 L8.75205513,6.4284851 L6.18390509,8.27358512 L9.95395515,10.7009352 L13.3437552,9.14688514 Z M17.9260553,10.2360852 L15.8743552,6.8416351 L14.0480052,9.74783515 C14.0010552,9.82763515 13.9306052,9.88398515 13.8508052,9.92153515 L10.3624552,11.5272352 L10.1934052,14.1893352 L12.4986552,15.4053352 L17.9260553,10.2360852 Z M23.9497554,6.6491351 L22.5976053,0.968185014 L17.5598553,0.968185014 L16.3720052,5.89323509 L18.6726053,9.69153514 L23.9497554,6.6491351 Z M21.6773553,15.4992352 L25.6165054,11.2877852 L21.3111553,9.42388514 C21.2501053,9.39573514 21.2032053,9.36283514 21.1609053,9.31588514 L18.7852553,10.6868352 L16.6396552,12.7291852 L21.6773553,15.4992352 Z M26.2738054,10.5694352 L30.5932055,5.79933509 L24.6493054,7.30643511 L22.1140053,8.76658513 L26.2738054,10.5694352 Z M31.4054055,4.64433507 L30.5744055,0.968185014 L23.5413054,0.968185014 L24.8136554,6.31578509 L31.4054055,4.64433507 Z M35.2647055,7.71958512 C35.4431055,7.90268512 35.4384055,8.19378512 35.2600055,8.36748512 C35.1661055,8.45668513 35.0534555,8.49898513 34.9360555,8.49898513 C34.8187055,8.49898513 34.6966055,8.45203513 34.6074055,8.36278512 L31.9641555,5.64908508 L27.3583554,10.7431852 L33.1425555,11.2220852 C33.3914055,11.2408352 33.5792555,11.4614852 33.5604555,11.7150352 C33.5416555,11.9544852 33.3397555,12.1375852 33.1050055,12.1375852 L33.0627555,12.1375852 L27.4193554,11.6680852 L30.6964555,15.7902852 C30.8561055,15.9874852 30.8232055,16.2785852 30.6213555,16.4334852 C30.5368555,16.5039352 30.4382555,16.5368352 30.3396555,16.5368352 C30.2035055,16.5368352 30.0673554,16.4757852 29.9781554,16.3630852 L26.3677054,11.8276852 L22.1046053,16.3912852 C22.0154053,16.4851852 21.8886553,16.5368352 21.7666053,16.5368352 C21.6915053,16.5368352 21.6163553,16.5180352 21.5459053,16.4804852 L16.0386552,13.4474852 C16.0058052,13.4287352 15.9870552,13.4005352 15.9588552,13.3770852 L12.8930552,16.2973852 C12.8038552,16.3818352 12.6911552,16.4288352 12.5738052,16.4288352 C12.5033552,16.4288352 12.4282052,16.4100352 12.3625052,16.3724852 L9.74740515,14.9968352 L5.57820508,17.8701853 C5.49840508,17.9218353 5.40920508,17.9499853 5.32000508,17.9499853 C5.17445508,17.9499853 5.02890507,17.8795353 4.93970507,17.7527853 C4.79885507,17.5415353 4.85050507,17.2551353 5.05710508,17.1142853 L9.27320514,14.2080852 L9.44220514,11.4662352 L5.49370508,8.91678513 L2.40910504,13.3066352 C2.31990503,13.4333852 2.17905503,13.5038352 2.03350503,13.5038352 C1.94430503,13.5038352 1.85040503,13.4756352 1.77060503,13.4193352 C1.56400502,13.2737852 1.51235502,12.9873852 1.65790502,12.7808352 L4.78475507,8.32523512 L2.09920503,5.31573508 L0.850355013,7.32518511 C0.714205011,7.54118511 0.432505006,7.60688511 0.216555003,7.47078511 C0.000555000008,7.33933511 -0.065145001,7.05758511 0.0710050011,6.8416351 L1.64380502,4.31103506 C1.71890503,4.18898506 1.85040503,4.10913506 1.99595503,4.09503506 C2.14150503,4.08098506 2.28230503,4.13733506 2.37620504,4.24528506 L5.43740508,7.67733511 L8.08065512,5.78058509 L6.8318051,0.968185014 L0.460655007,0.968185014 C0.207155003,0.968185014 0.000555000008,0.761585011 0.000555000008,0.508085008 C0.000555000008,0.254535004 0.207155003,0.0479350007 0.460655007,0.0479350007 L9.92110515,0.0479350007 C10.1746552,0.0479350007 10.3765052,0.254535004 10.3765052,0.508085008 C10.3765052,0.761585011 10.1746552,0.968185014 9.92110515,0.968185014 L7.78485512,0.968185014 L8.95860513,5.50828508 L15.5222552,5.50828508 L16.6114552,0.968185014 L14.5269052,0.968185014 C14.2733552,0.968185014 14.0667552,0.761585011 14.0667552,0.508085008 C14.0667552,0.254535004 14.2733552,0.0479350007 14.5269052,0.0479350007 L34.9360555,0.0479350007 C35.1896055,0.0479350007 35.3961787,0.254535004 35.3961787,0.508085008 C35.3961787,0.761585011 35.1896055,0.968185014 34.9360555,0.968185014 L31.5181055,0.968185014 L32.3726055,4.75233507 L35.2647055,7.71958512 Z" id="Fill-11" fill="#000000" mask="url(#mask-2)"></path>
                </g>
                <path d="M15.8743702,6.8416151 L17.9260703,10.2361152 L12.4986702,15.4053152 L10.1934202,14.1893152 L10.3624202,11.5272652 L13.8508202,9.92156515 C13.9306202,9.88401515 14.0010702,9.82766515 14.0480202,9.74781515 L15.8743702,6.8416151 Z" id="Fill-14" fill="#956640"></path>
            </g>
        </g>
        <g id="Group-20" transform="translate(4.415000, 10.915000)">
            <g id="Group-3" transform="translate(27.930000, 6.887580)">
                <mask id="mask-4" fill="white">
                    <use xlink:href="#path-3"></use>
                </mask>
                <g id="Clip-2"></g>
                <path d="M1.122646,0.0511840002 C1.72737601,0.0511840002 2.21373601,0.544124002 2.21373601,1.148924 C2.21373601,1.74707401 1.72737601,2.24001401 1.122646,2.24001401 C0.517916002,2.24001401 0.0249760001,1.74707401 0.0249760001,1.148924 C0.0249760001,0.544124002 0.517916002,0.0511840002 1.122646,0.0511840002" id="Fill-1" fill="#000000" mask="url(#mask-4)"></path>
            </g>
            <g id="Group-6" transform="translate(25.340000, 0.027580)">
                <mask id="mask-6" fill="white">
                    <use xlink:href="#path-5"></use>
                </mask>
                <g id="Clip-5"></g>
                <path d="M1.129485,0.0423990002 C1.73421501,0.0423990002 2.22715501,0.535339002 2.22715501,1.140139 C2.22715501,1.73828901 1.73421501,2.23122901 1.129485,2.23122901 C0.524755002,2.23122901 0.0383950002,1.73828901 0.0383950002,1.140139 C0.0383950002,0.535339002 0.524755002,0.0423990002 1.129485,0.0423990002" id="Fill-4" fill="#000000" mask="url(#mask-6)"></path>
            </g>
            <path d="M22.2956301,4.74996202 C22.9003601,4.74996202 23.3867201,5.24290202 23.3867201,5.84763202 C23.3867201,6.45236203 22.9003601,6.93879203 22.2956301,6.93879203 C21.6909001,6.93879203 21.1978901,6.45236203 21.1978901,5.84763202 C21.1978901,5.24290202 21.6909001,4.74996202 22.2956301,4.74996202" id="Fill-7" fill="#000000"></path>
            <path d="M16.7808761,0.681282003 C17.3856061,0.681282003 17.8719661,1.174222 17.8719661,1.77895201 C17.8719661,2.38368201 17.3856061,2.87011201 16.7808761,2.87011201 C16.1761461,2.87011201 15.6832061,2.38368201 15.6832061,1.77895201 C15.6832061,1.174222 16.1761461,0.681282003 16.7808761,0.681282003" id="Fill-9" fill="#000000"></path>
            <path d="M12.6858761,4.35559602 C13.2906061,4.35559602 13.7836161,4.84853602 13.7836161,5.45326602 C13.7836161,6.05799603 13.2906061,6.54442603 12.6858761,6.54442603 C12.0877261,6.54442603 11.594786,6.05799603 11.594786,5.45326602 C11.594786,4.84853602 12.0877261,4.35559602 12.6858761,4.35559602" id="Fill-11" fill="#000000"></path>
            <path d="M7.21716103,0.687841003 C7.81531103,0.760151003 8.24910104,1.30573101 8.17679103,1.90388101 C8.10448103,2.50854101 7.55897103,2.93582101 6.96082103,2.86351101 C6.36267103,2.79120101 5.92888103,2.24562101 6.00112103,1.64747101 C6.07343103,1.049391 6.61901103,0.622111003 7.21716103,0.687841003" id="Fill-13" fill="#000000"></path>
            <g id="Group-17" transform="translate(5.950000, 6.887580)">
                <mask id="mask-8" fill="white">
                    <use xlink:href="#path-7"></use>
                </mask>
                <g id="Clip-16"></g>
                <path d="M1.135701,0.0511840002 C1.74043101,0.0511840002 2.23337101,0.544124002 2.23337101,1.148924 C2.23337101,1.74707401 1.74043101,2.24001401 1.135701,2.24001401 C0.537551002,2.24001401 0.0446110002,1.74707401 0.0446110002,1.148924 C0.0446110002,0.544124002 0.537551002,0.0511840002 1.135701,0.0511840002" id="Fill-15" fill="#000000" mask="url(#mask-8)"></path>
            </g>
            <path d="M1.097698,5.84764602 C1.70242801,5.84764602 2.18878801,6.33407603 2.18878801,6.93873603 C2.18878801,7.54353603 1.70242801,8.03647603 1.097698,8.03647603 C0.492968002,8.03647603 2.80000001e-05,7.54353603 2.80000001e-05,6.93873603 C2.80000001e-05,6.33407603 0.492968002,5.84764602 1.097698,5.84764602" id="Fill-18" fill="#000000"></path>
        </g>
    </g>
</svg>