<?xml version="1.0" encoding="UTF-8"?>
<svg width="40px" height="40px" viewBox="0 0 40 40" version="1.1" xmlns="http://www.w3.org/2000/svg" xmlns:xlink="http://www.w3.org/1999/xlink">
    <title>Reducir el dióxido de carbono</title>
    <g id="Reducir-el-dióxido-de-carbono" stroke="none" stroke-width="1" fill="none" fill-rule="evenodd">
        <g id="shutterstock_1261029073-(1)" transform="translate(1.000000, 1.000000)">
            <path d="M16.6651296,0.916392531 C18.1731093,0.916392531 19.6025064,1.2528443 20.8823488,1.85477566 C21.5851563,1.6975223 22.3161491,1.61419627 23.0666037,1.61419627 C27.8786026,1.61419627 31.8904246,5.04016093 32.7959695,9.58599023 C36.1640681,11.1715389 38.4958741,14.596823 38.4958741,18.5667296 C38.4958741,24.0458014 34.0542089,28.4874667 28.5751371,28.4874667 C26.4618991,28.4874667 24.5029846,27.8267297 22.8937135,26.7005757 C21.5006709,27.4474535 19.9080096,27.8708 18.2164704,27.8708 C15.9043429,27.8708 13.7769543,27.0798384 12.0901262,25.7537366 L11.8383371,25.7564741 C6.35926528,25.7564741 1.9176,21.3148088 1.9176,15.835737 C1.9176,11.8867746 4.224867,8.47670323 7.5648694,6.88005453 C9.09261802,3.3707302 12.5922532,0.916392531 16.6651296,0.916392531 Z" id="Path" fill="#D8D8D8"></path>
            <path d="M33.1168,11.0928 C32.5629333,6.77706667 28.9042667,3.55066667 24.5229333,3.55066667 C23.0154667,3.55066667 21.5354667,3.94133333 20.2312,4.6848 C18.9,3.80293333 17.3581333,3.33973333 15.7533333,3.33973333 C11.7421333,3.33973333 8.32853333,6.2824 7.72346667,10.2248 C4.24186667,11.4178667 1.9176,14.6613333 1.9176,18.3616 C1.9176,23.1061333 5.77706667,26.9653333 10.5176,26.9653333 L12.2189333,26.9653333 L12.2189333,26.2736 L10.5176,26.2736 C6.15706667,26.2736 2.60933333,22.7221333 2.60933333,18.3616 C2.60933333,14.8896 4.82933333,11.8570667 8.13893333,10.816 L8.3496,10.7504 L8.37733333,10.5290667 C8.844,6.82533333 12.0149333,4.0312 15.7533333,4.0312 C17.2885333,4.0312 18.7656,4.49813333 20.0205333,5.37653333 L20.2042667,5.508 L20.3976,5.3904 C21.6389333,4.64 23.0674667,4.24213333 24.5229333,4.24213333 C28.6170667,4.24213333 32.0272,7.30613333 32.4528,11.3693333 L32.4765333,11.5768 L32.6669333,11.6528 C35.5373333,12.8250667 37.3906667,15.5848 37.3906667,18.6832 C37.3906667,22.8674667 33.988,26.2736 29.8005333,26.2736 L27.7802667,26.2736 L27.7802667,26.9653333 L29.8005333,26.9653333 C34.3682667,26.9653333 38.0824,23.2477333 38.0824,18.6832 C38.0824,15.3704 36.1426667,12.4136 33.1168,11.0928" id="Fill-21" stroke="#7C7979" stroke-width="0.2" fill="#7C7979" stroke-linecap="round" stroke-linejoin="round"></path>
            <path d="M32.1168,11.0928 C31.5629333,6.77706667 27.9042667,3.55066667 23.5229333,3.55066667 C22.0154667,3.55066667 20.5354667,3.94133333 19.2312,4.6848 C17.9,3.80293333 16.3581333,3.33973333 14.7533333,3.33973333 C10.7421333,3.33973333 7.32853333,6.2824 6.72346667,10.2248 C3.24186667,11.4178667 0.9176,14.6613333 0.9176,18.3616 C0.9176,23.1061333 4.77706667,26.9653333 9.5176,26.9653333 L11.2189333,26.9653333 L11.2189333,26.2736 L9.5176,26.2736 C5.15706667,26.2736 1.60933333,22.7221333 1.60933333,18.3616 C1.60933333,14.8896 3.82933333,11.8570667 7.13893333,10.816 L7.3496,10.7504 L7.37733333,10.5290667 C7.844,6.82533333 11.0149333,4.0312 14.7533333,4.0312 C16.2885333,4.0312 17.7656,4.49813333 19.0205333,5.37653333 L19.2042667,5.508 L19.3976,5.3904 C20.6389333,4.64 22.0674667,4.24213333 23.5229333,4.24213333 C27.6170667,4.24213333 31.0272,7.30613333 31.4528,11.3693333 L31.4765333,11.5768 L31.6669333,11.6528 C34.5373333,12.8250667 36.3906667,15.5848 36.3906667,18.6832 C36.3906667,22.8674667 32.988,26.2736 28.8005333,26.2736 L26.7802667,26.2736 L26.7802667,26.9653333 L28.8005333,26.9653333 C33.3682667,26.9653333 37.0824,23.2477333 37.0824,18.6832 C37.0824,15.3704 35.1426667,12.4136 32.1168,11.0928" id="Fill-21" stroke="#000000" stroke-width="0.2" fill="#000000" stroke-linecap="round" stroke-linejoin="round"></path>
            <path d="M21.8413333,13.2264 C19.6064,13.2264 17.7882667,15.0448 17.7882667,17.2797333 C17.7882667,19.5144 19.6064,21.3325333 21.8413333,21.3325333 C24.076,21.3325333 25.8941333,19.5144 25.8941333,17.2797333 C25.8941333,15.0448 24.076,13.2264 21.8413333,13.2264 Z M21.8413333,22.0242667 C19.2253333,22.0242667 17.0965333,19.8957333 17.0965333,17.2797333 C17.0965333,14.6634667 19.2253333,12.5349333 21.8413333,12.5349333 C24.4576,12.5349333 26.5858667,14.6634667 26.5858667,17.2797333 C26.5858667,19.8957333 24.4576,22.0242667 21.8413333,22.0242667 L21.8413333,22.0242667 Z" id="Fill-22" stroke="#7C7979" stroke-width="0.2" fill="#7C7979" stroke-linecap="round" stroke-linejoin="round"></path>
            <path d="M21.8413333,12.2264 C19.6064,12.2264 17.7882667,14.0448 17.7882667,16.2797333 C17.7882667,18.5144 19.6064,20.3325333 21.8413333,20.3325333 C24.076,20.3325333 25.8941333,18.5144 25.8941333,16.2797333 C25.8941333,14.0448 24.076,12.2264 21.8413333,12.2264 Z M21.8413333,21.0242667 C19.2253333,21.0242667 17.0965333,18.8957333 17.0965333,16.2797333 C17.0965333,13.6634667 19.2253333,11.5349333 21.8413333,11.5349333 C24.4576,11.5349333 26.5858667,13.6634667 26.5858667,16.2797333 C26.5858667,18.8957333 24.4576,21.0242667 21.8413333,21.0242667 L21.8413333,21.0242667 Z" id="Fill-22" stroke="#000000" stroke-width="0.2" fill="#000000" stroke-linecap="round" stroke-linejoin="round"></path>
            <path d="M13.0402667,22.024 C10.4242667,22.024 8.29573333,19.8957333 8.29573333,17.2797333 C8.29573333,14.6634667 10.4242667,12.5349333 13.0402667,12.5349333 C14.2072,12.5349333 15.3293333,12.9637333 16.2005333,13.7424 L15.7397333,14.2581333 C14.9954667,13.5928 14.0368,13.2266667 13.0402667,13.2266667 C10.8053333,13.2266667 8.98746667,15.0448 8.98746667,17.2797333 C8.98746667,19.5144 10.8053333,21.3322667 13.0402667,21.3322667 C14.0368,21.3322667 14.9954667,20.9661333 15.7397333,20.3013333 L16.2005333,20.8168 C15.3293333,21.5952 14.2069333,22.024 13.0402667,22.024" id="Fill-23" stroke="#7C7979" stroke-width="0.2" fill="#7C7979" stroke-linecap="round" stroke-linejoin="round"></path>
            <path d="M13.0402667,21.024 C10.4242667,21.024 8.29573333,18.8957333 8.29573333,16.2797333 C8.29573333,13.6634667 10.4242667,11.5349333 13.0402667,11.5349333 C14.2072,11.5349333 15.3293333,11.9637333 16.2005333,12.7424 L15.7397333,13.2581333 C14.9954667,12.5928 14.0368,12.2266667 13.0402667,12.2266667 C10.8053333,12.2266667 8.98746667,14.0448 8.98746667,16.2797333 C8.98746667,18.5144 10.8053333,20.3322667 13.0402667,20.3322667 C14.0368,20.3322667 14.9954667,19.9661333 15.7397333,19.3013333 L16.2005333,19.8168 C15.3293333,20.5952 14.2069333,21.024 13.0402667,21.024" id="Fill-23" stroke="#000000" stroke-width="0.2" fill="#000000" stroke-linecap="round" stroke-linejoin="round"></path>
            <path d="M27.4818667,23.6624 L27.4818667,22.544 C27.4818667,21.8064 28.0816,21.2064 28.8192,21.2064 L29.8005333,21.2061333 C30.1082667,21.2058667 30.3584,20.9554667 30.3584,20.648 L30.3584,20.2498667 C30.3584,20.1008 30.3002667,19.9605333 30.1949333,19.8552 C30.0896,19.7498667 29.9490667,19.6917333 29.8002667,19.6917333 C29.8002667,19.6917333 29.8002667,19.6917333 29.8,19.6917333 L28.8237333,19.6922667 C28.4674667,19.6922667 28.1776,19.9821333 28.1776,20.3381333 L27.4858667,20.3381333 C27.4858667,19.6008 28.0858667,19.0008 28.8232,19.0005333 L29.7994667,19 C29.8,19 29.8,19 29.8002667,19 C30.1338667,19 30.448,19.1301333 30.684,19.3658667 C30.92,19.6021333 31.0501333,19.916 31.0501333,20.2498667 L31.0501333,20.648 C31.0501333,21.3368 30.4896,21.8976 29.8005333,21.8976 L28.8192,21.8981333 C28.4632,21.8981333 28.1736,22.1877333 28.1736,22.544 L28.1736,22.9706667 L31.0866667,22.9704 L31.0866667,23.6621333 L27.4818667,23.6624" id="Fill-24" stroke="#7C7979" stroke-width="0.2" fill="#7C7979" stroke-linecap="round" stroke-linejoin="round"></path>
            <path d="M27.2101333,23.0890667 L27.2101333,21.9706667 C27.2101333,21.2330667 27.8098667,20.6330667 28.5474667,20.6330667 L29.5288,20.6328 C29.8365333,20.6325333 30.0866667,20.3821333 30.0866667,20.0746667 L30.0866667,19.6765333 C30.0866667,19.5274667 30.0285333,19.3872 29.9232,19.2818667 C29.8178667,19.1765333 29.6773333,19.1184 29.5285333,19.1184 C29.5285333,19.1184 29.5285333,19.1184 29.5282667,19.1184 L28.552,19.1189333 C28.1957333,19.1189333 27.9058667,19.4088 27.9058667,19.7648 L27.2141333,19.7648 C27.2141333,19.0274667 27.8141333,18.4274667 28.5514667,18.4272 L29.5277333,18.4266667 C29.5282667,18.4266667 29.5282667,18.4266667 29.5285333,18.4266667 C29.8621333,18.4266667 30.1762667,18.5568 30.4122667,18.7925333 C30.6482667,19.0288 30.7784,19.3426667 30.7784,19.6765333 L30.7784,20.0746667 C30.7784,20.7634667 30.2178667,21.3242667 29.5288,21.3242667 L28.5474667,21.3248 C28.1914667,21.3248 27.9018667,21.6144 27.9018667,21.9706667 L27.9018667,22.3973333 L30.8149333,22.3970667 L30.8149333,23.0888 L27.2101333,23.0890667" id="Fill-24" stroke="#000000" stroke-width="0.2" fill="#000000" stroke-linecap="round" stroke-linejoin="round"></path>
            <polygon id="Fill-25" stroke="#000000" stroke-width="0.2" fill="#000000" stroke-linecap="round" stroke-linejoin="round" points="18.6544 33.3872 19.3458667 33.3872 19.3458667 25.3157333 18.6544 25.3157333"></polygon>
            <polyline id="Fill-26" stroke="#000000" stroke-width="0.2" fill="#000000" stroke-linecap="round" stroke-linejoin="round" points="19 34.0064 15.8946667 30.9008 16.3837333 30.4117333 19 33.0282667 21.6165333 30.4117333 22.1056 30.9008 19 34.0064"></polyline>
            <polygon id="Fill-27" stroke="#000000" stroke-width="0.2" fill="#000000" stroke-linecap="round" stroke-linejoin="round" points="12.4541333 31.4632 13.1458667 31.4632 13.1458667 24.2784 12.4541333 24.2784"></polygon>
            <polyline id="Fill-28" stroke="#000000" stroke-width="0.2" fill="#000000" stroke-linecap="round" stroke-linejoin="round" points="12.8 32.0821333 9.69466667 28.9765333 10.1834667 28.4874667 12.8 31.104 15.4165333 28.4874667 15.9056 28.9765333 12.8 32.0821333"></polyline>
            <polygon id="Fill-29" stroke="#000000" stroke-width="0.2" fill="#000000" stroke-linecap="round" stroke-linejoin="round" points="24.8544 31.4632 25.5458667 31.4632 25.5458667 24.2784 24.8544 24.2784"></polygon>
            <polyline id="Fill-30" stroke="#000000" stroke-width="0.2" fill="#000000" stroke-linecap="round" stroke-linejoin="round" points="25.2002667 32.0821333 22.0946667 28.9765333 22.5837333 28.4874667 25.2002667 31.104 27.8162667 28.4874667 28.3053333 28.9765333 25.2002667 32.0821333"></polyline>
        </g>
    </g>
</svg>