<?xml version="1.0" encoding="UTF-8"?>
<svg width="40px" height="40px" viewBox="0 0 40 40" version="1.1" xmlns="http://www.w3.org/2000/svg" xmlns:xlink="http://www.w3.org/1999/xlink">
    <title>pérdida de biodiversidad</title>
    <g id="pérdida-de-biodiversidad" stroke="none" stroke-width="1" fill="none" fill-rule="evenodd">
        <g id="Group" transform="translate(0.000000, 5.500000)">
            <g id="shutterstock_386988112-(1)" transform="translate(0.000000, 0.000000)">
                <path d="M38.9436667,15.5859333 L33.9674667,15.5841333 C34.0325333,15.3062667 34.0811333,15.0266667 34.1136667,14.7451333 C34.1227333,14.6748 34.1281333,14.6044667 34.1334667,14.5341333 C34.1479333,14.3916667 34.1552667,14.2508 34.1586667,14.1082 C34.1606667,14.0378 34.1624667,13.9658667 34.1624667,13.8955333 L34.1496667,13.8955333 C34.1496667,13.8917333 34.1496667,13.8883333 34.1496667,13.8846 L32.6360667,13.8846 L32.6360667,9.2782 C36.12,9.2782 38.9436667,12.1020667 38.9436667,15.5859333" id="Fill-29" fill="#C3EDF0"></path>
                <path d="M23.5372667,1.22053333 C25.7563333,1.22053333 27.6203333,2.11886667 28.9300667,3.57306667 C30.238,5.02566667 30.9942667,7.03373333 30.9942667,9.2512 L30.9942667,13.8846 L32.6360667,13.8846 L32.6360667,13.8955333 L34.1496667,13.8955333 C34.1496667,15.7881333 33.4299333,17.6807333 31.9918,19.1277333 C29.1049333,22.0127333 24.4248,22.0109333 21.5379333,19.1241333 C20.5708667,18.157 19.1850667,16.4539333 19.2969333,13.9223333 L19.2969333,6.83353333 C19.2969333,6.52306667 19.0444,6.26886667 18.7322667,6.26886667 L18.2578667,6.26886667 C18.1278667,7.3586 17.2023333,8.203 16.0784,8.203 C15.2464,8.203 14.5229333,7.74106667 14.1494667,7.05893333 L14.1746667,7.05893333 C13.9998,6.745 13.8986667,6.38233333 13.8986667,5.99633333 C13.8986667,5.42246667 14.1206667,4.9012 14.4833333,4.50973333 L14.4652,4.51333333 C14.8639333,4.07853333 15.4394667,3.806 16.0784,3.806 C16.1197333,3.806 16.1595333,3.8096 16.2010667,3.8132 C16.6104667,3.8168 17.935,3.8204 17.9386,3.824 L18.7322667,3.824 C20.3921333,3.824 21.7418,5.17546667 21.7418,6.83353333 L21.7418,13.8917333 C21.7473333,13.89 21.7543333,13.8883333 21.7635333,13.8846 C21.9258,13.8232 23.2593333,13.4823333 23.5372667,12.3454667 L23.5372667,1.22053333" id="Fill-30" fill="#FFFFFF"></path>
                <path d="M31.9918,17.3234667 C29.1049333,20.2086667 24.4248,20.2067333 21.5379333,17.3198667 C20.6396,16.4214667 19.3818667,14.8868 19.2969333,12.6444667 L19.2969333,13.9223333 C19.1850667,16.4539333 20.5708667,18.157 21.5379333,19.1241333 C24.4248,22.0109333 29.1049333,22.0127333 31.9918,19.1277333 C33.4299333,17.6807333 34.1496667,15.7881333 34.1496667,13.8955333 L33.9272,13.8955333 C33.6139333,15.1506667 32.9691333,16.3400667 31.9918,17.3234667" id="Fill-31" fill="#C3EDF0"></path>
                <path d="M9.67493333,5.32693333 L14.4652,4.51333333 C14.1007333,4.90473333 13.8806667,5.42806667 13.8806667,6.00353333 C13.8806667,6.386 13.978,6.745 14.1494667,7.05893333 L11.0372,7.01753333 L10.6022667,7.01213333 L6.82066667,6.9634 L6.41286667,6.95786667 L0.548866667,6.88033333 L8.29106667,5.56333333 L9.31586667,5.38813333 L9.67493333,5.32693333" id="Fill-32" fill="#FFA564"></path>
                <path d="M12.0402667,1.57053333 C11.9971333,1.65526667 10.606,4.39786667 9.68393333,5.31973333 C9.68033333,5.3234 9.67853333,5.32513333 9.67493333,5.32693333 L9.31586667,5.38813333 C9.583,5.0688 9.65333333,4.708 8.87373333,3.92873333 C8.84493333,3.89973333 8.8142,3.86913333 8.78,3.84033333 C8.7476,3.8096 8.71326667,3.77886667 8.67713333,3.74813333 C8.64653333,3.72126667 8.61593333,3.6958 8.5834,3.66893333 C9.68933333,2.765 11.9645333,1.60846667 12.0402667,1.57053333" id="Fill-33" fill="#94CD85"></path>
                <path d="M8.87373333,3.92873333 C9.65333333,4.708 9.583,5.0688 9.31586667,5.38813333 L8.29106667,5.56333333 L7.68126667,5.5056 C7.61806667,5.44966667 7.55313333,5.38813333 7.48266667,5.31973333 C6.56073333,4.39786667 5.16966667,1.65526667 5.12633333,1.57053333 C5.204,1.60846667 7.47906667,2.76666667 8.5834,3.66893333 C8.61593333,3.6958 8.64653333,3.72126667 8.67713333,3.74813333 C8.71326667,3.77886667 8.7476,3.8096 8.78,3.84033333 C8.8142,3.86913333 8.84493333,3.89973333 8.87373333,3.92873333" id="Fill-34" fill="#B2E7A4"></path>
                <path d="M11.0372,7.01753333 C13.2527333,9.06533333 14.8134,13.5399333 14.8134,16.0894667 C14.8134,19.4706 12.0726667,21.4155333 8.69153333,21.4155333 C5.31033333,21.4155333 2.56973333,19.4706 2.56973333,16.0894667 C2.56973333,13.5147333 4.16106667,8.97686667 6.41286667,6.95786667 L6.82066667,6.9634 C5.8608,8.25173333 5.2238,10.2598 5.2238,11.4848667 C5.2238,13.4010667 6.77553333,14.5017333 8.69153333,14.5017333 C10.606,14.5017333 12.1594,13.4010667 12.1594,11.4848667 C12.1594,10.2762 11.5387333,8.30413333 10.6022667,7.01213333 L11.0372,7.01753333" id="Fill-35" fill="#B2E7A4"></path>
                <path d="M14.8134,16.0894667 C14.8134,19.4706 12.0726667,21.4155333 8.69153333,21.4155333 C6.3042,21.4155333 4.2376,20.4448667 3.22813333,18.6844667 C4.24906667,19.291 5.51546667,19.6112667 6.88726667,19.6112667 C10.2684,19.6112667 13.0091333,17.6663333 13.0091333,14.2851333 C13.0091333,12.3374667 12.0978667,9.2676 10.6799333,7.01313333 L11.0372,7.01753333 C13.2527333,9.06533333 14.8134,13.5399333 14.8134,16.0894667" id="Fill-36" fill="#94CD85"></path>
                <path d="M8.87373333,4.17993333 C8.8092,4.17993333 8.74466667,4.15526667 8.6956,4.10586667 C8.67173333,4.08193333 8.6464,4.0564 8.61813333,4.03253333 C8.5778,3.99486667 8.54693333,3.9672 8.51426667,3.93946667 C8.4086,3.8496 8.39586667,3.691 8.48573333,3.58526667 C8.5758,3.47966667 8.73426667,3.46673333 8.83993333,3.55673333 C8.8796,3.59046667 8.9174,3.62433333 8.953,3.65813333 C8.98193333,3.68193333 9.01813333,3.7176 9.05186667,3.75153333 C9.1498,3.84993333 9.14926667,4.009 9.05086667,4.10686667 C9.00186667,4.15553333 8.93773333,4.17993333 8.87373333,4.17993333" id="Fill-37" fill="#000000"></path>
                <path d="M8.58353333,3.9202 C8.51073333,3.9202 8.43853333,3.88873333 8.3888,3.82793333 C8.30106667,3.72046667 8.31693333,3.5622 8.4244,3.47433333 C9.54026667,2.56233333 11.7772667,1.42213333 11.9206667,1.34946667 C12.016,1.29746667 12.1382,1.31126667 12.2189333,1.39193333 C12.3170667,1.49 12.3180667,1.6482 12.2198667,1.7462 L12.2179333,1.7482 C12.1988667,1.76726667 12.1769333,1.78313333 12.1528,1.79513333 C12.1300667,1.8066 9.82993333,2.9746 8.7424,3.86353333 C8.69566667,3.9016 8.6394,3.9202 8.58353333,3.9202" id="Fill-38" fill="#000000"></path>
                <path d="M9.67506667,5.57826667 C9.58293333,5.57826667 9.49426667,5.52733333 9.4502,5.43933333 C9.3966,5.33206667 9.42686667,5.20486667 9.51613333,5.1322 C10.3758667,4.26273333 11.6692667,1.74553333 11.8144667,1.4602 L12.2641333,1.68466667 C12.1128,1.98186667 10.7754667,4.58366667 9.8616,5.4974 C9.84253333,5.51653333 9.81146667,5.5396 9.78733333,5.55173333 C9.75126667,5.56973333 9.71286667,5.57826667 9.67506667,5.57826667" id="Fill-39" fill="#000000"></path>
                <path d="M7.8652,5.88706667 C7.81506667,5.88706667 7.7644,5.87206667 7.7204,5.84093333 L7.5362,5.71073333 C7.52873333,5.70546667 7.52153333,5.69973333 7.51466667,5.6936 C7.44886667,5.6354 7.38113333,5.57133333 7.30773333,5.50006667 C6.41546667,4.60793333 5.15033333,2.17073333 4.9058,1.6912 C4.85126667,1.59186667 4.8686,1.46413333 4.9556,1.38433333 C5.0578,1.2906 5.21586667,1.29646667 5.30973333,1.3988 L5.3116,1.40073333 C5.3268,1.41746667 5.33973333,1.436 5.35,1.45613333 C5.49966667,1.7496 6.8066,4.2884 7.66033333,5.14213333 C7.72153333,5.2014 7.78046667,5.25733333 7.83766667,5.30853333 L8.01046667,5.43066667 C8.1238,5.51073333 8.15073333,5.66753333 8.0706,5.7808 C8.02166667,5.85006667 7.94406667,5.88706667 7.8652,5.88706667" id="Fill-40" fill="#000000"></path>
                <path d="M9.31573333,5.6394 C9.25886667,5.6394 9.20166667,5.6202 9.15466667,5.5808 C9.04826667,5.49186667 9.03413333,5.33333333 9.1232,5.22693333 C9.26393333,5.0586 9.4392,4.84913333 8.69606667,4.1064 C8.67173333,4.08193333 8.6464,4.0564 8.61813333,4.03253333 C8.5778,3.99486667 8.54693333,3.9672 8.51433333,3.93946667 C8.4828,3.91186667 8.45406667,3.88793333 8.4236,3.86286667 C7.3296,2.969 5.03786667,1.807 5.01606667,1.79626667 C4.89133333,1.7354 4.83966667,1.58493333 4.9006,1.46026667 C4.96153333,1.33566667 5.112,1.28413333 5.23653333,1.3448 C5.259,1.35566667 7.58726667,2.5306 8.7424,3.47433333 C8.7778,3.50353333 8.81026667,3.53066667 8.8428,3.5592 C8.8796,3.59046667 8.9174,3.62433333 8.953,3.65813333 C8.98193333,3.68193333 9.01813333,3.7176 9.05186667,3.75153333 C9.80013333,4.49953333 9.93693333,5.03733333 9.5086,5.54933333 C9.45893333,5.60873333 9.3876,5.6394 9.31573333,5.6394" id="Fill-41" fill="#000000"></path>
                <path d="M8.69153333,21.6668 C4.9392,21.6668 2.31846667,19.3732667 2.31846667,16.0894667 C2.31846667,13.3525333 3.9978,8.7858 6.24513333,6.7708 C6.34853333,6.67793333 6.50706667,6.68673333 6.59993333,6.79013333 C6.6926,6.8934 6.68393333,7.05233333 6.5806,7.14486667 C4.4288,9.0742 2.821,13.4584 2.821,16.0894667 C2.821,18.6154 4.6362,21.1642667 8.69153333,21.1642667 C12.7469333,21.1642667 14.5622,18.6154 14.5622,16.0894667 C14.5622,13.5066 12.9818,9.15706667 10.8666667,7.20206667 C10.7648,7.10786667 10.7584667,6.94893333 10.8527333,6.847 C10.9468667,6.74513333 11.1058,6.73886667 11.2077333,6.833 C13.4152667,8.87346667 15.0646667,13.4028 15.0646667,16.0894667 C15.0646667,19.3732667 12.4439333,21.6668 8.69153333,21.6668" id="Fill-42" fill="#000000"></path>
                <path d="M8.69153333,14.753 C6.50186667,14.753 4.97253333,13.4091333 4.97253333,11.4848667 C4.97253333,10.2748667 5.58853333,8.19666667 6.6192,6.81333333 C6.70206667,6.7018 6.8596,6.67913333 6.97073333,6.76193333 C7.08206667,6.8448 7.10506667,7.00226667 7.02213333,7.11346667 C6.0666,8.39606667 5.47506667,10.3812 5.47506667,11.4848667 C5.47506667,13.3953333 7.09046667,14.2504667 8.69153333,14.2504667 C10.2926,14.2504667 11.9081333,13.3953333 11.9081333,11.4848667 C11.9081333,10.3822667 11.3436,8.46293333 10.3988667,7.1596 C10.3174,7.0472 10.3424,6.89013333 10.4548,6.80873333 C10.5672667,6.72693333 10.7242,6.75233333 10.8056667,6.86466667 C11.8102667,8.2506 12.4106,10.3021333 12.4106,11.4848667 C12.4106,13.4091333 10.8812667,14.753 8.69153333,14.753" id="Fill-43" fill="#000000"></path>
                <path d="M34.1588667,14.3594667 C34.1564,14.3594667 34.1541333,14.3594667 34.1516,14.3593333 C34.0129333,14.3554 33.9036667,14.2398667 33.9076,14.1011333 C33.9094,14.0332 33.9112,13.9636 33.9112,13.8955333 C33.9112,13.7567333 34.0236667,13.6442667 34.1624667,13.6442667 C34.3012,13.6442667 34.4136667,13.7567333 34.4136667,13.8955333 C34.4136667,13.9681333 34.4119333,14.0425333 34.4097333,14.1152 C34.406,14.2514667 34.2942667,14.3594667 34.1588667,14.3594667" id="Fill-44" fill="#000000"></path>
                <path d="M38.9436667,15.8372 C38.9436667,15.8372 38.9436667,15.8372 38.9434667,15.8372 L33.9673333,15.8354 C33.8905333,15.8354 33.8171333,15.8002667 33.7695333,15.7400667 C33.7219333,15.6798 33.7034667,15.6012 33.7210667,15.5264 C33.7821333,15.268 33.8302,14.9949333 33.8642667,14.7148667 L33.8666667,14.6898667 C33.8726,14.6315333 33.8784667,14.5732667 33.8830667,14.5149333 C33.8934667,14.3764 34.0162,14.2733333 34.1528,14.2836 C34.291,14.2942667 34.3945333,14.415 34.3839333,14.5533333 C34.3792,14.6156 34.373,14.6779333 34.3667333,14.7402 L34.3636667,14.7702 C34.3402667,14.9629333 34.3111333,15.1507333 34.2761333,15.3330667 L38.6874,15.3345333 C38.5584667,12.1944667 36.0274,9.6634 32.8874,9.5346 L32.8874,13.6442667 L34.1496667,13.6442667 C34.2884,13.6442667 34.4009333,13.7567333 34.4009333,13.8955333 C34.4009333,14.0343333 34.2884,14.1468 34.1496667,14.1468 L32.6360667,14.1468 C32.4974,14.1468 32.3848,14.0343333 32.3848,13.8955333 L32.3848,9.2782 C32.3848,9.1394 32.4974,9.02693333 32.6360667,9.02693333 C36.2526667,9.02693333 39.1949333,11.9693333 39.1949333,15.5859333 C39.1949333,15.6525333 39.1684,15.7164667 39.1213333,15.7636 C39.0742,15.8106667 39.0102667,15.8372 38.9436667,15.8372" id="Fill-45" fill="#000000"></path>
                <path d="M28.0983333,9.66306667 C27.9596,9.66306667 27.847,9.55066667 27.847,9.41186667 L27.847,2.8208 C27.847,2.68193333 27.9596,2.56953333 28.0983333,2.56953333 C28.237,2.56953333 28.3495333,2.68193333 28.3495333,2.8208 L28.3495333,9.41186667 C28.3495333,9.55066667 28.237,9.66306667 28.0983333,9.66306667" id="Fill-46" fill="#000000"></path>
                <path d="M25.8428667,10.9946 C25.7042,10.9946 25.5916,10.8821333 25.5916,10.7433333 L25.5916,1.69686667 C25.5916,1.55806667 25.7042,1.4456 25.8428667,1.4456 C25.9816,1.4456 26.0941333,1.55806667 26.0941333,1.69686667 L26.0941333,10.7433333 C26.0941333,10.8821333 25.9816,10.9946 25.8428667,10.9946" id="Fill-47" fill="#000000"></path>
                <path d="M31.9918,19.379 C31.9274667,19.379 31.8632,19.3544 31.8141333,19.3054 C31.7159333,19.2072 31.7159333,19.0482667 31.8141333,18.9500667 C31.8203333,18.9438667 31.827,18.9378 31.8339333,18.9322667 C32.7694,17.991 33.4222667,16.8140667 33.7227333,15.5270667 C33.7850667,15.2607333 33.8326667,14.9881333 33.8640667,14.7162667 C33.8729333,14.6472 33.8778,14.581 33.8830667,14.5149333 C33.8959333,14.3847333 33.9038667,14.2516667 33.9074,14.1021333 C33.9089333,14.0512 33.9102,13.9998667 33.9108667,13.9491333 C33.9069333,13.9318667 33.9048,13.9139333 33.9048,13.8955333 C33.9048,13.7567333 34.0109333,13.6442667 34.1496667,13.6442667 C34.2884,13.6442667 34.4136667,13.7567333 34.4136667,13.8955333 C34.4136667,13.9681333 34.4119333,14.0425333 34.4097333,14.1152 C34.406,14.2767333 34.3973333,14.4223333 34.3834667,14.5594 C34.3784,14.6279333 34.3724667,14.7024667 34.363,14.7770667 C34.3296,15.0648667 34.2788,15.3568 34.2122,15.6414 C33.8886,17.0270667 33.1836,18.2932667 32.1733333,19.3036 C32.1524,19.3245333 32.1282,19.3413333 32.102,19.3536667 C32.0673333,19.3705333 32.0295333,19.379 31.9918,19.379" id="Fill-48" fill="#000000"></path>
                <path d="M18.2578667,6.0176 L18.7322667,6.0176 C19.1822,6.0176 19.5482,6.3836 19.5482,6.83353333 L19.5482,13.9223333 C19.4668667,15.767 20.1760667,17.4067333 21.7156,18.9464667 C23.065,20.2958667 24.8591333,21.0391333 26.7676,21.0391333 C26.7677333,21.0391333 26.7680667,21.0391333 26.7680667,21.0391333 C28.6742,21.0391333 30.4660667,20.2973333 31.8141333,18.9500667 C33.1014667,17.6548667 33.8349333,15.953 33.8945333,14.1358 L30.9942667,14.1358 C30.8555333,14.1358 30.7430667,14.0234 30.7430667,13.8846 L30.7430667,9.2512 C30.7430667,7.13006667 30.0329333,5.17326667 28.7434,3.74126667 C27.4796,2.33813333 25.7278667,1.5394 23.7884667,1.47586667 L23.7884667,12.3454667 C23.7884667,12.3655333 23.786,12.3856 23.7812667,12.4051333 C23.5900667,13.1874667 22.9584667,13.7585333 21.9040667,14.1022667 C21.881,14.1098 21.8634667,14.1154667 21.8523333,14.1196 C21.8426,14.1236667 21.8292,14.1279333 21.8175333,14.1313333 C21.7416,14.1536667 21.6572,14.1394667 21.5937333,14.0920667 C21.5304667,14.0446 21.4904667,13.9709333 21.4904667,13.8917333 L21.4904667,6.83353333 C21.4904667,5.3126 20.2532667,4.07526667 18.7322667,4.07526667 L17.9386,4.07526667 C17.9323333,4.07526667 17.9262,4.075 17.92,4.0746 C17.8560667,4.0728 17.3873333,4.0706 17.0091333,4.06886667 C16.6878667,4.0674 16.3666,4.06593333 16.1988667,4.06446667 C16.1923333,4.0644 16.1858667,4.06406667 16.1794,4.0636 C16.142,4.06026667 16.1108667,4.05726667 16.0784,4.05726667 C15.5357333,4.05726667 15.0152,4.2854 14.6503333,4.6832 C14.3155333,5.04266667 14.1319333,5.51113333 14.1319333,6.00353333 C14.1319333,6.33473333 14.2120667,6.64933333 14.3699333,6.93853333 C14.7120667,7.5634 15.3667333,7.95173333 16.0784,7.95173333 C17.0621333,7.95173333 17.8918667,7.21546667 18.0084,6.23906667 C18.0235333,6.11266667 18.1306,6.0176 18.2578667,6.0176 Z M26.7680667,21.5416667 C26.7679333,21.5416667 26.7677333,21.5416667 26.7676,21.5416667 C24.7248,21.5416667 22.8045333,20.746 21.3602667,19.3017333 C19.7153333,17.6568667 18.9583333,15.8936 19.0459333,13.9112 L19.0457333,6.83353333 C19.0457333,6.66066667 18.9050667,6.52013333 18.7322667,6.52013333 L18.4706667,6.52013333 C18.2325333,7.6372 17.2409333,8.4542 16.0784,8.4542 C15.1831333,8.4542 14.3595333,7.9658 13.9290667,7.17953333 C13.733,6.8206 13.6294,6.414 13.6294,6.00353333 C13.6294,5.38366667 13.8609333,4.7936 14.2813333,4.34213333 C14.7397333,3.84226667 15.3952667,3.55473333 16.0784,3.55473333 C16.1254667,3.55473333 16.1708,3.55833333 16.2179333,3.56246667 C16.3706,3.5634 16.691,3.56493333 17.0114,3.5664 C17.548,3.5688 17.8048667,3.57006667 17.9386,3.58126667 L17.9386,3.57273333 L18.7322667,3.57273333 C20.5303333,3.57273333 21.9930667,5.03553333 21.9930667,6.83353333 L21.9930667,13.5368667 C22.7106667,13.2546667 23.1449333,12.8442 23.2859333,12.3139333 L23.2859333,1.22053333 C23.2859333,1.08173333 23.3985333,0.969266667 23.5372667,0.969266667 C25.7205333,0.969266667 27.7020667,1.83426667 29.1167333,3.40493333 C30.4894667,4.92946667 31.2455333,7.00566667 31.2455333,9.2512 L31.2455333,13.6333333 L34.1496667,13.6333333 C34.2884,13.6333333 34.4009333,13.7458 34.4009333,13.8846 C34.4009333,15.9363333 33.6086,17.8574 32.1699333,19.3048667 C30.7264667,20.7474667 28.8082,21.5416667 26.7680667,21.5416667 L26.7680667,21.5416667 Z" id="Fill-49" fill="#000000"></path>
                <path d="M3.30973333,6.66553333 L13.785,6.8028 C13.6944,6.5444 13.6474,6.27126667 13.6474,5.99633333 C13.6474,5.59593333 13.7454,5.20693333 13.9296,4.85906667 L3.30973333,6.66553333 Z M14.1746667,7.3102 L14.1494667,7.3102 L0.545533333,7.1316 C0.415666667,7.12986667 0.3084,7.02933333 0.2984,6.8998 C0.288333333,6.7702 0.378733333,6.6544 0.5068,6.63266667 L14.4345333,4.26326667 C14.5410667,4.242 14.6496,4.29213333 14.7026667,4.38713333 C14.7557333,4.48213333 14.7416,4.6006 14.6676667,4.68053333 C14.3338,5.0408 14.1499333,5.50813333 14.1499333,5.99633333 C14.1499333,6.32473333 14.2344,6.64993333 14.3942,6.93666667 C14.4375333,7.01446667 14.4364,7.1094 14.3913333,7.1862 C14.3461333,7.263 14.2637333,7.3102 14.1746667,7.3102 L14.1746667,7.3102 Z" id="Fill-50" fill="#000000"></path>
                <path d="M16.0787333,6.0552 C15.9681333,6.0552 15.8592667,6.01 15.7822,5.93133333 C15.7034667,5.85426667 15.6599333,5.7454 15.6599333,5.63646667 C15.6599333,5.52593333 15.7034667,5.41706667 15.7822,5.34 C15.9362667,5.18426667 16.2194,5.18426667 16.3734667,5.34 C16.4522,5.41706667 16.4974667,5.52593333 16.4974667,5.63646667 C16.4974667,5.7454 16.4522,5.85426667 16.3734667,5.93133333 C16.2964,6.01 16.1875333,6.0552 16.0787333,6.0552" id="Fill-51" fill="#000000"></path>
            </g>
        </g>
    </g>
</svg>